<mxfile host="app.diagrams.net" modified="2020-06-22T00:55:49.082Z" agent="5.0 (Windows NT 10.0; Win64; x64) AppleWebKit/537.36 (KHTML, like Gecko) Chrome/83.0.4103.106 Safari/537.36" etag="zTZdh2I3tWwsTP0BAQaK" version="13.3.0" type="github" pages="3">
  <diagram id="DIbJH2vH1Tr9jFOYhvIO" name="Moodipy">
    <mxGraphModel dx="1422" dy="794" grid="1" gridSize="10" guides="1" tooltips="1" connect="1" arrows="1" fold="1" page="1" pageScale="1" pageWidth="1100" pageHeight="1700" math="0" shadow="0">
      <root>
        <mxCell id="0" />
        <mxCell id="1" parent="0" />
        <mxCell id="ZeUlIEip3lXjZJmpSLjW-2" value="Constructor" style="rounded=0;whiteSpace=wrap;html=1;" parent="1" vertex="1">
          <mxGeometry x="370" y="50" width="120" height="60" as="geometry" />
        </mxCell>
        <mxCell id="ZeUlIEip3lXjZJmpSLjW-5" style="edgeStyle=orthogonalEdgeStyle;rounded=0;orthogonalLoop=1;jettySize=auto;html=1;exitX=1;exitY=0.5;exitDx=0;exitDy=0;entryX=0;entryY=0.5;entryDx=0;entryDy=0;" parent="1" source="ZeUlIEip3lXjZJmpSLjW-3" target="ZeUlIEip3lXjZJmpSLjW-2" edge="1">
          <mxGeometry relative="1" as="geometry" />
        </mxCell>
        <mxCell id="ZeUlIEip3lXjZJmpSLjW-3" value="URI (song or playlist) [from db]" style="rounded=1;whiteSpace=wrap;html=1;" parent="1" vertex="1">
          <mxGeometry x="180" y="50" width="120" height="60" as="geometry" />
        </mxCell>
        <mxCell id="D6BG3231qvvEoaofOKs0-7" style="edgeStyle=orthogonalEdgeStyle;rounded=0;orthogonalLoop=1;jettySize=auto;html=1;exitX=1;exitY=0.5;exitDx=0;exitDy=0;entryX=0;entryY=0.5;entryDx=0;entryDy=0;" edge="1" parent="1" source="D6BG3231qvvEoaofOKs0-4" target="D6BG3231qvvEoaofOKs0-6">
          <mxGeometry relative="1" as="geometry" />
        </mxCell>
        <mxCell id="D6BG3231qvvEoaofOKs0-4" value="Send URI" style="rounded=0;whiteSpace=wrap;html=1;" vertex="1" parent="1">
          <mxGeometry x="370" y="180" width="120" height="60" as="geometry" />
        </mxCell>
        <mxCell id="D6BG3231qvvEoaofOKs0-6" value="URI" style="ellipse;whiteSpace=wrap;html=1;" vertex="1" parent="1">
          <mxGeometry x="570" y="170" width="120" height="80" as="geometry" />
        </mxCell>
      </root>
    </mxGraphModel>
  </diagram>
  <diagram id="1phr_JED8ix9qaMJ2jdj" name="Playlist">
    <mxGraphModel dx="1422" dy="794" grid="1" gridSize="10" guides="1" tooltips="1" connect="1" arrows="1" fold="1" page="1" pageScale="1" pageWidth="1100" pageHeight="1700" math="0" shadow="0">
      <root>
        <mxCell id="va2ZlCVfM00T22epi8mS-0" />
        <mxCell id="va2ZlCVfM00T22epi8mS-1" parent="va2ZlCVfM00T22epi8mS-0" />
        <mxCell id="ZqWu9BGTFts9AUmY3aQZ-0" value="Create new playlist" style="rounded=0;whiteSpace=wrap;html=1;" vertex="1" parent="va2ZlCVfM00T22epi8mS-1">
          <mxGeometry x="180" y="60" width="120" height="60" as="geometry" />
        </mxCell>
        <mxCell id="ZqWu9BGTFts9AUmY3aQZ-1" value="Add song to playlist" style="rounded=0;whiteSpace=wrap;html=1;" vertex="1" parent="va2ZlCVfM00T22epi8mS-1">
          <mxGeometry x="180" y="190" width="120" height="60" as="geometry" />
        </mxCell>
        <mxCell id="ZqWu9BGTFts9AUmY3aQZ-2" value="Remove song from playlist" style="rounded=0;whiteSpace=wrap;html=1;" vertex="1" parent="va2ZlCVfM00T22epi8mS-1">
          <mxGeometry x="170" y="320" width="120" height="60" as="geometry" />
        </mxCell>
        <mxCell id="ZqWu9BGTFts9AUmY3aQZ-3" value="Remove playlist" style="rounded=0;whiteSpace=wrap;html=1;" vertex="1" parent="va2ZlCVfM00T22epi8mS-1">
          <mxGeometry x="170" y="500" width="120" height="60" as="geometry" />
        </mxCell>
        <mxCell id="ZqWu9BGTFts9AUmY3aQZ-4" value="Pick scale for song" style="rounded=0;whiteSpace=wrap;html=1;" vertex="1" parent="va2ZlCVfM00T22epi8mS-1">
          <mxGeometry x="170" y="400" width="120" height="60" as="geometry" />
        </mxCell>
        <mxCell id="ZqWu9BGTFts9AUmY3aQZ-5" value="Change playlist name" style="rounded=0;whiteSpace=wrap;html=1;" vertex="1" parent="va2ZlCVfM00T22epi8mS-1">
          <mxGeometry x="170" y="600" width="120" height="60" as="geometry" />
        </mxCell>
        <mxCell id="ZqWu9BGTFts9AUmY3aQZ-11" style="edgeStyle=orthogonalEdgeStyle;rounded=0;orthogonalLoop=1;jettySize=auto;html=1;exitX=1;exitY=0;exitDx=0;exitDy=0;entryX=0;entryY=0.5;entryDx=0;entryDy=0;" edge="1" parent="va2ZlCVfM00T22epi8mS-1" source="ZqWu9BGTFts9AUmY3aQZ-6" target="ZqWu9BGTFts9AUmY3aQZ-3">
          <mxGeometry relative="1" as="geometry" />
        </mxCell>
        <mxCell id="ZqWu9BGTFts9AUmY3aQZ-12" style="edgeStyle=orthogonalEdgeStyle;rounded=0;orthogonalLoop=1;jettySize=auto;html=1;exitX=1;exitY=1;exitDx=0;exitDy=0;entryX=0;entryY=0.5;entryDx=0;entryDy=0;" edge="1" parent="va2ZlCVfM00T22epi8mS-1" source="ZqWu9BGTFts9AUmY3aQZ-6" target="ZqWu9BGTFts9AUmY3aQZ-5">
          <mxGeometry relative="1" as="geometry" />
        </mxCell>
        <mxCell id="ZqWu9BGTFts9AUmY3aQZ-6" value="Playlist URI [protected variable]" style="rounded=1;whiteSpace=wrap;html=1;" vertex="1" parent="va2ZlCVfM00T22epi8mS-1">
          <mxGeometry y="550" width="120" height="60" as="geometry" />
        </mxCell>
        <mxCell id="ZqWu9BGTFts9AUmY3aQZ-8" style="edgeStyle=orthogonalEdgeStyle;rounded=0;orthogonalLoop=1;jettySize=auto;html=1;exitX=1;exitY=0;exitDx=0;exitDy=0;entryX=0;entryY=0.5;entryDx=0;entryDy=0;" edge="1" parent="va2ZlCVfM00T22epi8mS-1" source="ZqWu9BGTFts9AUmY3aQZ-7" target="ZqWu9BGTFts9AUmY3aQZ-1">
          <mxGeometry relative="1" as="geometry" />
        </mxCell>
        <mxCell id="ZqWu9BGTFts9AUmY3aQZ-9" style="edgeStyle=orthogonalEdgeStyle;rounded=0;orthogonalLoop=1;jettySize=auto;html=1;exitX=1;exitY=1;exitDx=0;exitDy=0;entryX=0;entryY=0.5;entryDx=0;entryDy=0;" edge="1" parent="va2ZlCVfM00T22epi8mS-1" source="ZqWu9BGTFts9AUmY3aQZ-7" target="ZqWu9BGTFts9AUmY3aQZ-2">
          <mxGeometry relative="1" as="geometry" />
        </mxCell>
        <mxCell id="ZqWu9BGTFts9AUmY3aQZ-7" value="Song URI [from .db]" style="rounded=1;whiteSpace=wrap;html=1;" vertex="1" parent="va2ZlCVfM00T22epi8mS-1">
          <mxGeometry x="10" y="250" width="120" height="60" as="geometry" />
        </mxCell>
      </root>
    </mxGraphModel>
  </diagram>
  <diagram id="uBsZhuAujKml6r6IYt9M" name="Song">
    <mxGraphModel dx="1422" dy="822" grid="1" gridSize="10" guides="1" tooltips="1" connect="1" arrows="1" fold="1" page="1" pageScale="1" pageWidth="1100" pageHeight="1700" math="0" shadow="0">
      <root>
        <mxCell id="Bd7FGDDM6IZJF3Nap6td-0" />
        <mxCell id="Bd7FGDDM6IZJF3Nap6td-1" parent="Bd7FGDDM6IZJF3Nap6td-0" />
      </root>
    </mxGraphModel>
  </diagram>
</mxfile>
